<?xml version="1.0" standalone="no"?>
<svg width="64" height="64" viewBox="0 0 414 384" version="1.1" xmlns="http://www.w3.org/2000/svg">
  <path d="M401 174c15 -15 18 -36 3 -51c0 0 -96 -103 -126 -121v0c-28 -21 -65 -34 -100 -34c-55 0 -101 36 -117 85v0v1c0 1 -1 2 -1 3l-58 189c-5 15 2 32 17 37s30 -3 35 -18l34 -88c1 -4 2 -2 2 1l-22 161c-3 15 7 30 22 33s30 -8 33 -23l25 -138c0 -2 2 -2 2 0v177 c0 15 13 28 28 28s28 -13 28 -28l8 -175c0 -5 3 -4 4 -1l23 135c2 15 16 27 31 25s27 -17 25 -32l-21 -172c-1 -12 -3 -30 2 -36c8 -9 20 -9 31 2l42 42c15 15 35 13 50 -2z" transform="matrix(1,0,0,-1,0,384)"/>
</svg>